<?xml version="1.0" encoding="utf-8"?>
<!-- Generator: Adobe Illustrator 20.1.0, SVG Export Plug-In . SVG Version: 6.00 Build 0)  -->
<svg version="1.1" id="Layer_1" xmlns="http://www.w3.org/2000/svg" xmlns:xlink="http://www.w3.org/1999/xlink" x="0px" y="0px"
	 viewBox="0 0 438.8 80.4" style="enable-background:new 0 0 438.8 80.4;" xml:space="preserve">
<style type="text/css">
	.st0{fill:#FFFFFF;}
</style>
<g>
	<path class="st0" d="M398.6,80.4c-22.2,0-40.2-18-40.2-40.2c0-22.2,18-40.2,40.2-40.2s40.2,18,40.2,40.2
		C438.8,62.4,420.8,80.4,398.6,80.4z M398.6,7.8c-17.9,0-32.4,14.5-32.4,32.4c0,17.9,14.5,32.4,32.4,32.4S431,58.1,431,40.2
		C431,22.3,416.5,7.8,398.6,7.8z"/>
	<g>
		<polygon class="st0" points="387.1,58.7 379.3,58.7 391,21.7 398.8,21.7 		"/>
		<polygon class="st0" points="406.2,58.7 398.4,58.7 410.1,21.7 417.9,21.7 		"/>
	</g>
</g>
<path class="st0" d="M0,21.4h6.7v14.9h4.7L20,21.4h7.2L16.9,38.8v0.1l11,19.1h-7.5l-9-16H6.7v16H0L0,21.4L0,21.4z"/>
<path class="st0" d="M27.7,21.4h6.7v23.5c0,4.9,3.2,7.7,8.1,7.7c4.9,0,8.1-2.8,8.1-7.7V21.4h6.7v23.5c0,8.2-5.9,13.8-14.7,13.8
	c-8.9,0-14.8-5.6-14.8-13.8V21.4z"/>
<path class="st0" d="M60.8,21.4h11.8c4,0,5.8,0.3,7.4,1c3.7,1.7,6,5.2,6,10c0,4.4-2.3,8.5-6.2,10v0.1c0,0,0.5,0.5,1.2,1.8L88.6,58
	h-7.4l-7.3-13.7h-6.4V58h-6.7L60.8,21.4L60.8,21.4z M73.5,38.6c3.6,0,5.8-2.1,5.8-5.8c0-3.5-1.5-5.7-6.7-5.7h-5.1v11.4L73.5,38.6
	L73.5,38.6z"/>
<path class="st0" d="M89.6,21.4h11.8c4,0,5.8,0.3,7.4,1c3.7,1.7,6,5.2,6,10c0,4.4-2.3,8.5-6.2,10v0.1c0,0,0.5,0.5,1.2,1.8l7.5,13.7
	h-7.4l-7.3-13.7h-6.4V58h-6.7L89.6,21.4L89.6,21.4z M102.2,38.6c3.6,0,5.8-2.1,5.8-5.8c0-3.5-1.5-5.7-6.7-5.7h-5.1v11.4L102.2,38.6
	L102.2,38.6z"/>
<path class="st0" d="M169.3,21.4c-1.7,0-3.1,1.4-3.1,3.1v18.1c0,2.2,0.4,5.7,0.4,5.7h-0.1c0,0-1.7-3.6-3-5.7l-13.9-21.1h-6.7V58h3.5
	c1.7,0,3.1-1.3,3.1-3V36.9c0-2.2-0.4-5.7-0.4-5.7h0.1c0,0,1.7,3.6,3,5.7L166.2,58h6.6V21.4H169.3z"/>
<polygon class="st0" points="203.1,22 203.1,21.4 172.5,21.4 172.5,27.1 184.5,27.1 184.5,58 191.1,58 191.1,27.1 201.5,27.1 "/>
<polygon class="st0" points="125,42.4 135.6,42.4 137.4,37 137.4,36.7 125,36.7 125,27.1 138.5,27.1 140.3,21.4 118.4,21.4 
	118.4,58 141.1,58 141.1,52.3 125,52.3 "/>
<g>
	<path class="st0" d="M211.4,21.7h7.1l7.2,18.1c0.8,2.2,1.9,5.4,1.9,5.4h0.1c0,0,1-3.2,1.8-5.4l7.2-18.1h7.1l2.9,36.6h-6.6
		l-1.5-20.5c-0.2-2.4-0.1-5.7-0.1-5.7h-0.1c0,0-1.1,3.6-2,5.7L230.5,52h-5.8l-5.9-14.2c-0.9-2.1-2-5.7-2-5.7h-0.1
		c0,0,0.1,3.3-0.1,5.7L215,58.3h-6.7L211.4,21.7z"/>
	<path class="st0" d="M305.7,21.7h6.7v36.6h-6.7V21.7z"/>
	<path class="st0" d="M249.1,21.7h6.7v23.5c0,4.9,3.2,7.7,8.1,7.7c4.9,0,8.1-2.8,8.1-7.7V21.7h6.7v23.5c0,8.2-5.9,13.8-14.7,13.8
		c-8.9,0-14.8-5.6-14.8-13.8L249.1,21.7L249.1,21.7z"/>
	<path class="st0" d="M287,31.6c0-2.6,2.4-4.4,5.5-4.4c4.6,0,8.1,3.2,8.1,3.2l0.2-0.3l1.9-5.9c-1.5-1.1-4.9-3.2-10.1-3.2
		c-7,0-12.3,4.5-12.3,10.6c0,11.2,17.3,10.1,17.3,16.7c0,3-2.5,4.4-5.3,4.4c-4.4,0-8.3-2.5-10.6-4.4c-0.4,2.2-1.2,4.3-2.3,6.1
		c2.9,2.1,7.4,4.5,12.8,4.5c7.6,0,12.1-4.9,12.1-10.7C304.2,36.5,287,38.1,287,31.6z"/>
	<path class="st0" d="M333.1,52.9c-7.6,0-12.3-6.1-12.3-13.1c0-6.8,4.5-12.6,12.3-12.6c5.8,0,10,3.9,10,3.9l0.1-0.2L345,25
		c-1.9-1.5-6-3.9-12.3-3.9c-10.8,0-18.8,8.1-18.8,18.8c0,10.8,7.7,19.1,18.9,19.1c9.3,0,14.4-5.9,14.4-5.9l-3.5-4.8
		C343.7,48.2,339.5,52.9,333.1,52.9z"/>
</g>
</svg>
