<?xml version="1.0" encoding="utf-8"?>
<!-- Generator: Adobe Illustrator 16.0.0, SVG Export Plug-In . SVG Version: 6.00 Build 0)  -->
<!DOCTYPE svg PUBLIC "-//W3C//DTD SVG 1.1//EN" "http://www.w3.org/Graphics/SVG/1.1/DTD/svg11.dtd">
<svg version="1.1" id="Layer_1" xmlns="http://www.w3.org/2000/svg" xmlns:xlink="http://www.w3.org/1999/xlink" x="0px" y="0px"
	 width="120px" height="120px" viewBox="250 0 120 120" enable-background="new 250 0 120 120" xml:space="preserve">
<g>
	<path fill="#87D900" d="M309.999,120C276.915,120,250,93.084,250,60c0-33.082,26.915-60,59.999-60S370,26.917,370,60
		C370,93.084,343.083,120,309.999,120z M309.999,11.653c-26.659,0-48.349,21.689-48.349,48.349
		c0,26.662,21.688,48.348,48.349,48.348c26.661,0,48.349-21.686,48.349-48.348C358.348,33.342,336.66,11.653,309.999,11.653z"/>
	<g>
		<polygon fill="#87D900" points="292.803,87.67 281.15,87.67 298.628,32.331 310.278,32.331 		"/>
		<polygon fill="#87D900" points="321.374,87.67 309.723,87.67 327.199,32.331 338.85,32.331 		"/>
	</g>
</g>
</svg>
