<?xml version="1.0" encoding="utf-8"?>
<!-- Generator: Adobe Illustrator 20.1.0, SVG Export Plug-In . SVG Version: 6.00 Build 0)  -->
<svg version="1.1" id="Layer_1" xmlns="http://www.w3.org/2000/svg" xmlns:xlink="http://www.w3.org/1999/xlink" x="0px" y="0px"
	 viewBox="0 0 500 140" style="enable-background:new 0 0 500 140;" xml:space="preserve">
<style type="text/css">
	.st0{opacity:0.2;}
	.st1{filter:url(#Adobe_OpacityMaskFilter);}
	.st2{mask:url(#SVGID_1_);}
	.st3{fill:#2C2C2C;}
	.st4{fill:#87D900;}
	.st5{fill:#FFFFFF;}
</style>
<g class="st0">
	<defs>
		<filter id="Adobe_OpacityMaskFilter" filterUnits="userSpaceOnUse" x="5.4" y="18.9" width="482.6" height="120.1">
			<feFlood  style="flood-color:white;flood-opacity:1" result="back"/>
			<feBlend  in="SourceGraphic" in2="back" mode="normal"/>
		</filter>
	</defs>
	<mask maskUnits="userSpaceOnUse" x="5.4" y="18.9" width="482.6" height="120.1" id="SVGID_1_">
		<g class="st1">
			
				<image style="overflow:visible;" width="487" height="125" xlink:href="8E746018F228BFFE.jpg"  transform="matrix(1 0 0 1 3 16)">
			</image>
		</g>
	</mask>
	<g class="st2">
		<path d="M428,19c-0.3,0-0.6,0-0.9,0c-0.1,0-0.3-0.1-0.4-0.1H103.6c-0.4,0-0.8,0.1-1.2,0.1c-1,0-63,0-63,0l-34,120
			c0,0,96-0.1,97-0.1c0.4,0,0.8,0,1.2,0h323.1c0.1,0,0.3,0,0.4,0c0.3,0,0.6,0,0.9,0c33.1,0,60-26.8,60-60S461.1,19,428,19z"/>
	</g>
</g>
<path class="st3" d="M428,0c-0.3,0-0.6,0-0.9,0c-0.1,0-0.3-0.1-0.4-0.1H103.6c-0.4,0-0.8,0.1-1.2,0.1c-1,0-63,0-63,0l-34,120
	c0,0,96-0.1,97-0.1c0.4,0,0.8,0,1.2,0h323.1c0.1,0,0.3,0,0.4,0c0.3,0,0.6,0,0.9,0c33.1,0,60-26.8,60-60S461.1,0,428,0z"/>
<g>
	<path class="st4" d="M426.5,103.9c-24.3,0-44-19.7-44-44s19.7-44,44-44s44,19.7,44,44C470.5,84.1,450.8,103.9,426.5,103.9z
		 M426.5,24.4C407,24.4,391,40.3,391,59.9s15.9,35.5,35.5,35.5S462,79.5,462,59.9S446.1,24.4,426.5,24.4z"/>
	<g>
		<polygon class="st4" points="413.9,80.2 405.4,80.2 418.2,39.6 426.7,39.6 		"/>
		<polygon class="st4" points="434.9,80.2 426.3,80.2 439.1,39.6 447.7,39.6 		"/>
	</g>
</g>
<g>
	<path class="st5" d="M78,57h5.5v12.2h3.9l7-12.2h5.9l-8.5,14.3v0.1l9,15.6h-6.1l-7.4-13.1h-3.9V87H78V57L78,57z"/>
	<path class="st5" d="M100.7,57h5.5v19.2c0,4,2.6,6.3,6.6,6.3s6.7-2.3,6.7-6.3V57h5.5v19.2c0,6.7-4.9,11.3-12.1,11.3
		c-7.3,0-12.1-4.6-12.1-11.3L100.7,57L100.7,57z"/>
	<path class="st5" d="M127.8,57h9.7c3.3,0,4.7,0.3,6,0.8c3,1.4,4.9,4.2,4.9,8.2c0,3.6-1.9,6.9-5.1,8.2v0.1c0,0,0.4,0.4,1,1.5
		l6.2,11.2h-6.1l-6-11.2h-5.2V87h-5.5L127.8,57L127.8,57z M138.2,71.1c2.9,0,4.7-1.7,4.7-4.7c0-2.9-1.2-4.6-5.5-4.6h-4.1v9.4
		L138.2,71.1L138.2,71.1z"/>
	<path class="st5" d="M151.4,57h9.7c3.3,0,4.7,0.3,6,0.8c3,1.4,4.9,4.2,4.9,8.2c0,3.6-1.9,6.9-5.1,8.2v0.1c0,0,0.4,0.4,1,1.5
		l6.2,11.2H168l-6-11.2h-5.2V87h-5.5V57H151.4z M161.8,71.1c2.9,0,4.7-1.7,4.7-4.7c0-2.9-1.2-4.6-5.5-4.6h-4.1v9.4L161.8,71.1
		L161.8,71.1z"/>
	<path class="st5" d="M216.7,57c-1.4,0-2.5,1.1-2.6,2.5v14.8c0,1.8,0.3,4.6,0.3,4.6h-0.1c0,0-1.4-2.9-2.5-4.6L200.5,57H195v30h2.9
		c1.4,0,2.5-1.1,2.6-2.5V69.7c0-1.8-0.3-4.6-0.3-4.6h0.1c0,0,1.4,2.9,2.5,4.6L214.2,87h5.4V57H216.7z"/>
	<polygon class="st5" points="244.5,57.4 244.5,57 219.3,57 219.3,61.7 229.2,61.7 229.2,87 234.6,87 234.6,61.7 243.1,61.7 	"/>
	<polygon class="st5" points="180.4,74.2 189.1,74.2 190.5,69.8 190.5,69.5 180.4,69.5 180.4,61.7 191.4,61.7 192.9,57 175,57 
		175,87 193.6,87 193.6,82.3 180.4,82.3 	"/>
</g>
<g>
	<path class="st5" d="M251.6,57.5h5.8l5.9,14.8c0.7,1.8,1.5,4.4,1.5,4.4h0.1c0,0,0.8-2.6,1.5-4.4l5.9-14.8h5.8l2.4,30h-5.4
		l-1.3-16.8c-0.1-2,0-4.6,0-4.6h-0.1c0,0-0.9,2.9-1.6,4.6l-4.9,11.6h-4.8l-4.8-11.6C257,69,256,66,256,66l0,0c0,0,0.1,2.7,0,4.7
		l-1.3,16.8h-5.5L251.6,57.5z"/>
	<path class="st5" d="M328.9,57.5h5.5v30h-5.5V57.5z"/>
	<path class="st5" d="M282.6,57.5h5.5v19.2c0,4,2.6,6.3,6.6,6.3s6.7-2.3,6.7-6.3V57.5h5.5v19.2c0,6.7-4.9,11.3-12.1,11.3
		c-7.3,0-12.1-4.6-12.1-11.3L282.6,57.5L282.6,57.5z"/>
	<path class="st5" d="M313.6,65.6c0-2.1,2-3.6,4.5-3.6c3.8,0,6.6,2.6,6.6,2.6l0.1-0.2l1.5-4.8c-1.2-0.9-4-2.6-8.2-2.6
		c-5.7,0-10.1,3.7-10.1,8.7c0,9.2,14.2,8.3,14.2,13.7c0,2.4-2.1,3.6-4.4,3.6c-3.6,0-6.8-2.1-8.7-3.6c-0.3,1.8-0.9,3.5-1.9,5
		c2.4,1.7,6,3.7,10.5,3.7c6.3,0,9.9-4,9.9-8.8C327.7,69.6,313.6,70.9,313.6,65.6z"/>
	<path class="st5" d="M351.4,83c-6.3,0-10.1-5-10.1-10.7c0-5.6,3.7-10.3,10.1-10.3c4.8,0,8.2,3.2,8.2,3.2l0.1-0.2l1.5-4.7
		c-1.6-1.2-4.9-3.2-10.1-3.2c-8.8,0-15.4,6.7-15.4,15.4c0,8.8,6.3,15.6,15.5,15.6c7.6,0,11.8-4.9,11.8-4.9l-2.9-3.9
		C360.1,79.2,356.6,83,351.4,83z"/>
</g>
<g>
	<path class="st5" d="M101.5,41.5v6.9h-3.7V28.8h6.4c1.3,0,2.4,0.2,3.4,0.5s1.8,0.7,2.4,1.3c0.6,0.6,1.1,1.2,1.4,2
		c0.3,0.8,0.4,1.6,0.4,2.5c0,1-0.2,1.8-0.5,2.6c-0.3,0.8-0.8,1.5-1.4,2c-0.6,0.6-1.4,1-2.4,1.3s-2.1,0.5-3.3,0.5
		C104.2,41.5,101.5,41.5,101.5,41.5z M101.5,38.7h2.7c0.7,0,1.3-0.1,1.8-0.3s0.9-0.4,1.2-0.7c0.3-0.3,0.6-0.7,0.7-1.1
		c0.2-0.4,0.2-0.9,0.2-1.5c0-0.5-0.1-1-0.2-1.4s-0.4-0.8-0.7-1.1c-0.3-0.3-0.7-0.5-1.2-0.7s-1.1-0.2-1.8-0.2h-2.7V38.7z"/>
	<path class="st5" d="M133.5,38.6c0,1.4-0.2,2.8-0.7,4s-1.2,2.3-2,3.2s-1.9,1.6-3.1,2.1c-1.2,0.5-2.6,0.8-4.1,0.8s-2.8-0.3-4.1-0.8
		c-1.2-0.5-2.3-1.2-3.2-2.1c-0.9-0.9-1.6-2-2-3.2s-0.7-2.6-0.7-4s0.2-2.8,0.7-4s1.2-2.3,2-3.2c0.9-0.9,1.9-1.6,3.2-2.1
		s2.6-0.8,4.1-0.8s2.8,0.3,4.1,0.8c1.2,0.5,2.3,1.2,3.1,2.1c0.9,0.9,1.5,2,2,3.2C133.3,35.9,133.5,37.2,133.5,38.6z M129.8,38.6
		c0-1.1-0.1-2-0.4-2.9c-0.3-0.9-0.7-1.6-1.2-2.2c-0.5-0.6-1.2-1.1-1.9-1.4c-0.8-0.3-1.6-0.5-2.6-0.5s-1.8,0.2-2.6,0.5
		c-0.8,0.3-1.4,0.8-2,1.4c-0.5,0.6-1,1.3-1.2,2.2c-0.3,0.9-0.4,1.8-0.4,2.9c0,1.1,0.1,2,0.4,2.9s0.7,1.6,1.2,2.2
		c0.5,0.6,1.2,1,2,1.4c0.8,0.3,1.6,0.5,2.6,0.5s1.8-0.2,2.6-0.5c0.8-0.3,1.4-0.8,1.9-1.4c0.5-0.6,0.9-1.3,1.2-2.2
		C129.6,40.7,129.8,39.7,129.8,38.6z"/>
	<path class="st5" d="M134.6,28.8h3.1c0.3,0,0.6,0.1,0.8,0.2c0.2,0.1,0.4,0.4,0.4,0.6l3.3,11.7c0.1,0.3,0.2,0.6,0.2,0.9
		c0.1,0.3,0.1,0.7,0.2,1.1c0.1-0.4,0.2-0.7,0.2-1.1c0.1-0.3,0.2-0.7,0.3-0.9l3.9-11.7c0.1-0.2,0.2-0.4,0.4-0.6
		c0.2-0.2,0.5-0.3,0.8-0.3h1.1c0.3,0,0.6,0.1,0.8,0.2c0.2,0.1,0.4,0.4,0.4,0.6l3.8,11.7c0.2,0.6,0.4,1.2,0.5,1.9
		c0.1-0.4,0.1-0.7,0.2-1c0.1-0.3,0.1-0.6,0.2-0.9l3.3-11.7c0.1-0.2,0.2-0.4,0.4-0.6s0.5-0.2,0.8-0.2h2.9l-6.1,19.6h-3.3L149,35
		c-0.1-0.2-0.1-0.4-0.2-0.6c-0.1-0.2-0.1-0.4-0.2-0.6c-0.1,0.2-0.1,0.4-0.2,0.6c-0.1,0.2-0.1,0.4-0.2,0.6L144,48.5h-3.3L134.6,28.8z
		"/>
	<path class="st5" d="M177.2,28.8v2.9h-8.7v5.4h6.9V40h-6.9v5.6h8.7v2.9h-12.4V28.8H177.2z"/>
	<path class="st5" d="M184.1,40.8v7.7h-3.7V28.8h6c1.3,0,2.5,0.1,3.4,0.4c1,0.3,1.7,0.7,2.4,1.2c0.6,0.5,1.1,1.1,1.3,1.8
		c0.3,0.7,0.4,1.5,0.4,2.3c0,0.7-0.1,1.3-0.3,1.9c-0.2,0.6-0.5,1.1-0.8,1.6c-0.4,0.5-0.8,0.9-1.4,1.3c-0.5,0.4-1.2,0.7-1.8,0.9
		c0.5,0.3,0.9,0.6,1.2,1.1l4.9,7.3h-3.3c-0.3,0-0.6-0.1-0.8-0.2c-0.2-0.1-0.4-0.3-0.6-0.5l-4.1-6.3c-0.2-0.2-0.3-0.4-0.5-0.5
		s-0.5-0.1-0.8-0.1h-1.5V40.8z M184.1,38.2h2.3c0.7,0,1.3-0.1,1.8-0.3s0.9-0.4,1.3-0.7c0.3-0.3,0.6-0.7,0.7-1.1
		c0.2-0.4,0.2-0.9,0.2-1.4c0-1-0.3-1.8-1-2.3s-1.7-0.8-3-0.8h-2.3V38.2z"/>
	<path class="st5" d="M210.5,28.8v2.9h-8.7v5.4h6.9V40h-6.9v5.6h8.7v2.9h-12.4V28.8H210.5z"/>
	<path class="st5" d="M231.2,38.6c0,1.4-0.2,2.8-0.7,4s-1.2,2.2-2,3.1c-0.9,0.9-1.9,1.5-3.1,2c-1.2,0.5-2.6,0.7-4.1,0.7h-7.5V28.8
		h7.5c1.5,0,2.8,0.2,4.1,0.7c1.2,0.5,2.3,1.2,3.1,2c0.9,0.9,1.5,1.9,2,3.1C230.9,35.9,231.2,37.2,231.2,38.6z M227.4,38.6
		c0-1.1-0.1-2-0.4-2.9c-0.3-0.9-0.7-1.6-1.2-2.2c-0.5-0.6-1.2-1-1.9-1.4c-0.8-0.3-1.6-0.5-2.6-0.5h-3.8v13.8h3.8
		c1,0,1.8-0.2,2.6-0.5s1.4-0.8,1.9-1.4c0.5-0.6,0.9-1.3,1.2-2.2C227.3,40.7,227.4,39.7,227.4,38.6z"/>
	<path class="st5" d="M239.3,48.5V28.8h6.8c1.3,0,2.4,0.1,3.3,0.4c0.9,0.2,1.7,0.6,2.2,1c0.6,0.5,1,1,1.3,1.6
		c0.3,0.6,0.4,1.4,0.4,2.2c0,0.5-0.1,0.9-0.2,1.3s-0.3,0.8-0.6,1.2s-0.6,0.7-1.1,1c-0.4,0.3-1,0.6-1.6,0.8c2.7,0.6,4,2.1,4,4.4
		c0,0.8-0.2,1.6-0.5,2.3s-0.8,1.3-1.4,1.8c-0.6,0.5-1.4,0.9-2.2,1.2c-0.9,0.3-1.9,0.4-3,0.4L239.3,48.5L239.3,48.5z M242.9,37.3h2.9
		c1.2,0,2.2-0.2,2.8-0.7s1-1.2,1-2.2s-0.3-1.8-0.9-2.2c-0.6-0.4-1.5-0.7-2.7-0.7h-3.1V37.3z M242.9,39.8v5.8h3.7
		c0.7,0,1.2-0.1,1.7-0.2c0.5-0.2,0.8-0.4,1.1-0.7s0.5-0.6,0.6-1s0.2-0.7,0.2-1.2c0-0.4-0.1-0.8-0.2-1.1s-0.3-0.6-0.6-0.9
		c-0.3-0.2-0.7-0.4-1.1-0.5c-0.5-0.1-1-0.2-1.6-0.2C246.7,39.8,242.9,39.8,242.9,39.8z"/>
	<path class="st5" d="M265.7,40.8v7.6H262v-7.6l-7.2-12h3.2c0.3,0,0.6,0.1,0.8,0.2c0.2,0.2,0.3,0.3,0.5,0.6l3.6,6.6
		c0.2,0.4,0.4,0.8,0.5,1.1c0.2,0.3,0.3,0.7,0.4,1c0.1-0.3,0.3-0.7,0.4-1c0.2-0.3,0.3-0.7,0.5-1.1l3.6-6.6c0.1-0.2,0.2-0.4,0.4-0.6
		c0.2-0.2,0.5-0.3,0.8-0.3h3.2L265.7,40.8z"/>
</g>
<g>
	<path class="st4" d="M57,260.3h5v11.3h3.6l6.5-11.3h5.5l-7.8,13.2v0.1L78,288h-5.7l-6.8-12.1H62V288h-5V260.3L57,260.3z"/>
	<path class="st4" d="M77.9,260.3h5V278c0,3.7,2.4,5.8,6.1,5.8s6.2-2.1,6.2-5.9v-17.7h5V278c0,6.2-4.5,10.4-11.2,10.4
		s-11.2-4.2-11.2-10.4L77.9,260.3L77.9,260.3z"/>
	<path class="st4" d="M103,260.3h9c3,0,4.4,0.2,5.6,0.8c2.8,1.3,4.5,3.9,4.5,7.6c0,3.3-1.8,6.4-4.7,7.6v0.1c0,0,0.4,0.4,0.9,1.4
		L124,288h-5.6l-5.5-10.3h-4.8V288h-5L103,260.3L103,260.3z M112.6,273.3c2.7,0,4.4-1.6,4.4-4.4c0-2.7-1.1-4.3-5.1-4.3h-3.8v8.7
		L112.6,273.3L112.6,273.3z"/>
	<path class="st4" d="M124.8,260.3h8.9c3,0,4.4,0.2,5.6,0.8c2.8,1.3,4.5,3.9,4.5,7.6c0,3.3-1.8,6.4-4.7,7.6v0.1c0,0,0.4,0.4,0.9,1.4
		l5.7,10.3h-5.6l-5.5-10.3h-4.8V288h-5V260.3L124.8,260.3z M134.4,273.3c2.7,0,4.4-1.6,4.4-4.4c0-2.7-1.1-4.3-5.1-4.3h-3.8v8.7
		L134.4,273.3L134.4,273.3z"/>
	<path class="st4" d="M185.2,260.3c-1.3,0-2.3,1-2.4,2.3v13.7c0,1.6,0.3,4.3,0.3,4.3H183c0,0-1.3-2.7-2.3-4.3l-10.5-16h-5V288h2.7
		c1.3,0,2.3-1,2.4-2.3V272c0-1.6-0.3-4.3-0.3-4.3h0.1c0,0,1.3,2.7,2.3,4.3l10.5,16h5v-27.7H185.2z"/>
	<polygon class="st4" points="210.8,260.7 210.8,260.3 187.5,260.3 187.5,264.6 196.6,264.6 196.6,288 201.7,288 201.7,264.6 
		209.5,264.6 	"/>
	<polygon class="st4" points="151.6,276.2 159.7,276.2 161,272.1 161,271.9 151.6,271.9 151.6,264.6 161.8,264.6 163.2,260.3 
		146.6,260.3 146.6,288 163.8,288 163.8,283.7 151.6,283.7 	"/>
</g>
<g>
	<path class="st4" d="M217.4,260.8h5.4l5.4,13.7c0.6,1.6,1.4,4.1,1.4,4.1h0.1c0,0,0.7-2.4,1.4-4.1l5.4-13.7h5.4l2.2,27.7h-5L238,273
		c-0.1-1.8,0-4.3,0-4.3h-0.1c0,0-0.8,2.7-1.5,4.3l-4.5,10.7h-4.4L223,273c-0.7-1.6-1.5-4.3-1.5-4.3h-0.1c0,0,0.1,2.5,0,4.3
		l-1.2,15.5h-5L217.4,260.8z"/>
	<path class="st4" d="M288.8,260.8h5v27.7h-5V260.8z"/>
	<path class="st4" d="M246,260.8h5v17.8c0,3.7,2.4,5.8,6.1,5.8s6.2-2.1,6.2-5.9v-17.7h5v17.8c0,6.2-4.5,10.4-11.2,10.4
		c-6.7,0-11.2-4.2-11.2-10.4L246,260.8L246,260.8z"/>
	<path class="st4" d="M274.6,268.2c0-2,1.8-3.3,4.2-3.3c3.5,0,6.1,2.4,6.1,2.4l0.1-0.2l1.4-4.4c-1.1-0.9-3.7-2.4-7.6-2.4
		c-5.3,0-9.3,3.4-9.3,8c0,8.5,13.1,7.7,13.1,12.6c0,2.3-1.9,3.4-4,3.4c-3.3,0-6.3-1.9-8-3.4c-0.3,1.7-0.9,3.2-1.7,4.6
		c2.2,1.6,5.6,3.4,9.7,3.4c5.8,0,9.1-3.7,9.1-8.1C287.7,272,274.6,273.2,274.6,268.2z"/>
	<path class="st4" d="M309.6,284.3c-5.8,0-9.3-4.6-9.3-9.9c0-5.2,3.4-9.5,9.3-9.5c4.4,0,7.6,2.9,7.6,2.9l0.1-0.2l1.4-4.4
		c-1.4-1.1-4.6-3-9.3-3c-8.2,0-14.3,6.2-14.3,14.2c0,8.2,5.9,14.4,14.3,14.4c7.1,0,10.9-4.5,10.9-4.5l-2.7-3.6
		C317.6,280.8,314.4,284.3,309.6,284.3z"/>
</g>
<g>
	<path class="st4" d="M62,243.7v8h-4.2V229h7.4c1.5,0,2.8,0.2,3.9,0.5c1.1,0.4,2,0.9,2.7,1.5c0.7,0.6,1.3,1.4,1.6,2.3
		c0.3,0.9,0.5,1.9,0.5,2.9c0,1.1-0.2,2.1-0.5,3c-0.4,0.9-0.9,1.7-1.6,2.4c-0.7,0.7-1.6,1.2-2.7,1.5c-1.1,0.4-2.4,0.5-3.9,0.5H62
		V243.7z M62,240.4h3.2c0.8,0,1.4-0.1,2-0.3c0.6-0.2,1.1-0.5,1.4-0.8c0.4-0.4,0.7-0.8,0.8-1.3c0.2-0.5,0.3-1.1,0.3-1.7
		c0-0.6-0.1-1.2-0.3-1.6c-0.2-0.5-0.5-0.9-0.8-1.3c-0.4-0.3-0.9-0.6-1.4-0.8c-0.6-0.2-1.2-0.3-2-0.3H62V240.4z"/>
	<path class="st4" d="M99,240.4c0,1.7-0.3,3.2-0.8,4.6c-0.6,1.4-1.3,2.6-2.3,3.7c-1,1-2.2,1.8-3.6,2.4c-1.4,0.6-3,0.9-4.7,0.9
		c-1.7,0-3.3-0.3-4.7-0.9c-1.4-0.6-2.6-1.4-3.6-2.4s-1.8-2.3-2.3-3.7c-0.6-1.4-0.8-3-0.8-4.6c0-1.7,0.3-3.2,0.8-4.6
		c0.6-1.4,1.3-2.6,2.3-3.7c1-1,2.2-1.8,3.6-2.4s3-0.9,4.7-0.9c1.7,0,3.3,0.3,4.7,0.9c1.4,0.6,2.6,1.4,3.6,2.4s1.8,2.3,2.3,3.7
		C98.7,237.2,99,238.7,99,240.4z M94.7,240.4c0-1.2-0.2-2.4-0.5-3.3c-0.3-1-0.8-1.8-1.4-2.5c-0.6-0.7-1.4-1.2-2.3-1.6
		c-0.9-0.4-1.9-0.5-3-0.5s-2.1,0.2-3,0.5c-0.9,0.4-1.6,0.9-2.3,1.6c-0.6,0.7-1.1,1.5-1.4,2.5s-0.5,2.1-0.5,3.3s0.2,2.4,0.5,3.3
		c0.3,1,0.8,1.8,1.4,2.5c0.6,0.7,1.4,1.2,2.3,1.6c0.9,0.4,1.9,0.5,3,0.5s2.1-0.2,3-0.5c0.9-0.4,1.6-0.9,2.3-1.6
		c0.6-0.7,1.1-1.5,1.4-2.5S94.7,241.6,94.7,240.4z"/>
	<path class="st4" d="M100.2,229h3.5c0.4,0,0.7,0.1,0.9,0.3c0.2,0.2,0.4,0.4,0.5,0.7l3.9,13.6c0.1,0.3,0.2,0.7,0.3,1.1
		c0.1,0.4,0.2,0.8,0.2,1.2c0.1-0.4,0.2-0.9,0.3-1.2c0.1-0.4,0.2-0.8,0.3-1.1l4.5-13.6c0.1-0.2,0.2-0.5,0.5-0.7
		c0.2-0.2,0.5-0.3,0.9-0.3h1.2c0.4,0,0.7,0.1,0.9,0.3c0.2,0.2,0.4,0.4,0.5,0.7l4.4,13.6c0.2,0.7,0.4,1.4,0.6,2.2
		c0.1-0.4,0.1-0.8,0.2-1.2s0.2-0.7,0.2-1.1l4-13.5c0.1-0.3,0.2-0.5,0.5-0.7s0.6-0.3,0.9-0.3h3.3l-7,22.7h-3.8l-5-15.5
		c-0.1-0.2-0.1-0.4-0.2-0.6c-0.1-0.2-0.1-0.5-0.2-0.7c-0.1,0.3-0.1,0.5-0.2,0.7s-0.1,0.4-0.2,0.6l-5,15.5h-3.8L100.2,229z"/>
	<path class="st4" d="M149.5,229v3.4h-10.1v6.3h7.9v3.2h-7.9v6.4h10.1v3.4h-14.3V229H149.5z"/>
	<path class="st4" d="M157.5,242.9v8.9h-4.2V229h6.9c1.5,0,2.9,0.2,4,0.5c1.1,0.3,2,0.8,2.7,1.3c0.7,0.6,1.2,1.3,1.6,2.1
		c0.3,0.8,0.5,1.7,0.5,2.6c0,0.8-0.1,1.5-0.3,2.2s-0.5,1.3-1,1.9c-0.4,0.6-0.9,1-1.6,1.5c-0.6,0.4-1.3,0.8-2.1,1
		c0.5,0.3,1,0.7,1.4,1.3l5.7,8.4h-3.8c-0.4,0-0.7-0.1-0.9-0.2c-0.3-0.1-0.5-0.4-0.7-0.6l-4.8-7.3c-0.2-0.3-0.4-0.5-0.6-0.6
		c-0.2-0.1-0.5-0.2-0.9-0.2H157.5z M157.5,239.8h2.6c0.8,0,1.5-0.1,2.1-0.3s1.1-0.5,1.5-0.8c0.4-0.4,0.7-0.8,0.9-1.2
		c0.2-0.5,0.3-1,0.3-1.6c0-1.1-0.4-2-1.1-2.6c-0.8-0.6-1.9-0.9-3.5-0.9h-2.7v7.4H157.5z"/>
	<path class="st4" d="M188,229v3.4h-10.1v6.3h7.9v3.2h-7.9v6.4H188v3.4h-14.3V229H188z"/>
	<path class="st4" d="M211.7,240.4c0,1.7-0.3,3.2-0.8,4.6c-0.6,1.4-1.3,2.6-2.3,3.6s-2.2,1.8-3.6,2.3c-1.4,0.6-3,0.8-4.7,0.8h-8.7
		V229h8.7c1.7,0,3.3,0.3,4.7,0.8c1.4,0.6,2.6,1.3,3.6,2.3s1.8,2.2,2.3,3.6C211.5,237.2,211.7,238.7,211.7,240.4z M207.4,240.4
		c0-1.2-0.2-2.4-0.5-3.3c-0.3-1-0.8-1.8-1.4-2.5c-0.6-0.7-1.4-1.2-2.2-1.6c-0.9-0.4-1.9-0.5-3-0.5h-4.4v16h4.4c1.1,0,2.1-0.2,3-0.5
		c0.9-0.4,1.6-0.9,2.2-1.6c0.6-0.7,1.1-1.5,1.4-2.5C207.3,242.7,207.4,241.6,207.4,240.4z"/>
	<path class="st4" d="M221.1,251.7V229h7.8c1.5,0,2.8,0.1,3.8,0.4c1.1,0.3,1.9,0.7,2.6,1.2c0.7,0.5,1.2,1.2,1.5,1.9s0.5,1.6,0.5,2.5
		c0,0.5-0.1,1-0.2,1.5s-0.4,0.9-0.7,1.4c-0.3,0.4-0.7,0.8-1.3,1.2c-0.5,0.3-1.1,0.6-1.8,0.9c3.1,0.7,4.7,2.4,4.7,5
		c0,1-0.2,1.9-0.5,2.7c-0.4,0.8-0.9,1.5-1.6,2.1c-0.7,0.6-1.6,1.1-2.6,1.4c-1,0.3-2.2,0.5-3.5,0.5L221.1,251.7L221.1,251.7z
		 M225.3,238.9h3.4c1.4,0,2.5-0.3,3.3-0.8c0.7-0.5,1.1-1.4,1.1-2.5c0-1.2-0.3-2-1-2.5s-1.7-0.8-3.1-0.8h-3.6L225.3,238.9
		L225.3,238.9z M225.3,241.8v6.6h4.3c0.8,0,1.4-0.1,2-0.3c0.5-0.2,1-0.4,1.3-0.8c0.3-0.3,0.5-0.7,0.7-1.1c0.1-0.4,0.2-0.9,0.2-1.3
		c0-0.5-0.1-0.9-0.2-1.3c-0.2-0.4-0.4-0.7-0.7-1s-0.8-0.5-1.3-0.6s-1.2-0.2-1.9-0.2L225.3,241.8L225.3,241.8z"/>
	<path class="st4" d="M251.6,242.9v8.8h-4.2v-8.8l-8.3-13.9h3.7c0.4,0,0.7,0.1,0.9,0.3s0.4,0.4,0.5,0.7l4.2,7.6
		c0.2,0.4,0.5,0.9,0.6,1.3c0.2,0.4,0.3,0.8,0.5,1.2c0.1-0.4,0.3-0.8,0.5-1.2s0.4-0.8,0.6-1.3l4.1-7.6c0.1-0.2,0.3-0.4,0.5-0.6
		c0.2-0.2,0.5-0.3,0.9-0.3h3.7L251.6,242.9z"/>
</g>
</svg>
