<?xml version="1.0" encoding="utf-8"?>
<!-- Generator: Adobe Illustrator 20.1.0, SVG Export Plug-In . SVG Version: 6.00 Build 0)  -->
<svg version="1.1" id="Layer_1" xmlns="http://www.w3.org/2000/svg" xmlns:xlink="http://www.w3.org/1999/xlink" x="0px" y="0px"
	 viewBox="0 0 450 120" style="enable-background:new 0 0 450 120;" xml:space="preserve">
<style type="text/css">
	.st0{fill:#87D900;}
	.st1{fill:#FFFFFF;}
</style>
<path class="st0" d="M390,0c-0.3,0-0.6,0-0.9,0c-0.1,0-0.3-0.1-0.4-0.1H65.6c-0.4,0-0.8,0.1-1.2,0.1c-1,0-2,0-3,0
	c-33.1,0-60,26.9-60,60s26.9,60,60,60c1,0,2-0.1,3-0.1c0.4,0,0.8,0,1.2,0h323.1c0.1,0,0.3,0,0.4,0c0.3,0,0.6,0,0.9,0
	c33.1,0,60-26.8,60-60S423.1,0,390,0z"/>
<g>
	<path class="st1" d="M388.5,103.9c-24.3,0-44-19.7-44-44c0-24.3,19.7-44,44-44s44,19.7,44,44C432.5,84.1,412.8,103.9,388.5,103.9z
		 M388.5,24.4c-19.5,0-35.5,15.9-35.5,35.5c0,19.6,15.9,35.5,35.5,35.5c19.6,0,35.5-15.9,35.5-35.5C424,40.3,408.1,24.4,388.5,24.4z
		"/>
	<g>
		<polygon class="st1" points="375.9,80.2 367.4,80.2 380.2,39.6 388.7,39.6 		"/>
		<polygon class="st1" points="396.9,80.2 388.3,80.2 401.1,39.6 409.7,39.6 		"/>
	</g>
</g>
<g>
	<path class="st1" d="M45,57h5.5v12.2h3.9L61.4,57h5.9l-8.5,14.3v0.1l9,15.6h-6.1l-7.4-13.1h-3.9V87H45L45,57L45,57z"/>
	<path class="st1" d="M67.7,57h5.5v19.2c0,4,2.6,6.3,6.6,6.3c4,0,6.7-2.3,6.7-6.3V57h5.5v19.2c0,6.7-4.9,11.3-12.1,11.3
		c-7.3,0-12.1-4.6-12.1-11.3V57z"/>
	<path class="st1" d="M94.8,57h9.7c3.3,0,4.7,0.3,6,0.8c3,1.4,4.9,4.2,4.9,8.2c0,3.6-1.9,6.9-5.1,8.2v0.1c0,0,0.4,0.4,1,1.5
		l6.2,11.2h-6.1l-6-11.2h-5.2V87h-5.5L94.8,57L94.8,57z M105.2,71.1c2.9,0,4.7-1.7,4.7-4.7c0-2.9-1.2-4.6-5.5-4.6h-4.1v9.4
		L105.2,71.1L105.2,71.1z"/>
	<path class="st1" d="M118.4,57h9.7c3.3,0,4.7,0.3,6,0.8c3,1.4,4.9,4.2,4.9,8.2c0,3.6-1.9,6.9-5.1,8.2v0.1c0,0,0.4,0.4,1,1.5
		l6.2,11.2h-6.1l-6-11.2h-5.2V87h-5.5V57L118.4,57z M128.8,71.1c2.9,0,4.7-1.7,4.7-4.7c0-2.9-1.2-4.6-5.5-4.6h-4.1v9.4L128.8,71.1
		L128.8,71.1z"/>
	<path class="st1" d="M183.7,57c-1.4,0-2.5,1.1-2.6,2.5v14.8c0,1.8,0.3,4.6,0.3,4.6h-0.1c0,0-1.4-2.9-2.5-4.6L167.5,57h-5.5v30h2.9
		c1.4,0,2.5-1.1,2.6-2.5V69.7c0-1.8-0.3-4.6-0.3-4.6h0.1c0,0,1.4,2.9,2.5,4.6L181.2,87h5.4V57H183.7z"/>
	<polygon class="st1" points="211.5,57.4 211.5,57 186.3,57 186.3,61.7 196.2,61.7 196.2,87 201.6,87 201.6,61.7 210.1,61.7 	"/>
	<polygon class="st1" points="147.4,74.2 156.1,74.2 157.5,69.8 157.5,69.5 147.4,69.5 147.4,61.7 158.4,61.7 159.9,57 142,57 
		142,87 160.6,87 160.6,82.3 147.4,82.3 	"/>
</g>
<g>
	<path class="st1" d="M218.6,57.5h5.8l5.9,14.8c0.7,1.8,1.5,4.4,1.5,4.4h0.1c0,0,0.8-2.6,1.5-4.4l5.9-14.8h5.8l2.4,30h-5.4
		l-1.3-16.8c-0.1-2,0-4.6,0-4.6h-0.1c0,0-0.9,2.9-1.6,4.6l-4.9,11.6h-4.8l-4.8-11.6C224,69,223,66,223,66H223c0,0,0.1,2.7,0,4.7
		l-1.3,16.8h-5.5L218.6,57.5z"/>
	<path class="st1" d="M295.9,57.5h5.5v30h-5.5V57.5z"/>
	<path class="st1" d="M249.6,57.5h5.5v19.2c0,4,2.6,6.3,6.6,6.3c4,0,6.7-2.3,6.7-6.3V57.5h5.5v19.2c0,6.7-4.9,11.3-12.1,11.3
		c-7.3,0-12.1-4.6-12.1-11.3L249.6,57.5L249.6,57.5z"/>
	<path class="st1" d="M280.6,65.6c0-2.1,2-3.6,4.5-3.6c3.8,0,6.6,2.6,6.6,2.6l0.1-0.2l1.5-4.8c-1.2-0.9-4-2.6-8.2-2.6
		c-5.7,0-10.1,3.7-10.1,8.7c0,9.2,14.2,8.3,14.2,13.7c0,2.4-2.1,3.6-4.4,3.6c-3.6,0-6.8-2.1-8.7-3.6c-0.3,1.8-0.9,3.5-1.9,5
		c2.4,1.7,6,3.7,10.5,3.7c6.3,0,9.9-4,9.9-8.8C294.7,69.6,280.6,70.9,280.6,65.6z"/>
	<path class="st1" d="M318.4,83c-6.3,0-10.1-5-10.1-10.7c0-5.6,3.7-10.3,10.1-10.3c4.8,0,8.2,3.2,8.2,3.2l0.1-0.2l1.5-4.7
		c-1.6-1.2-4.9-3.2-10.1-3.2c-8.8,0-15.4,6.7-15.4,15.4c0,8.8,6.3,15.6,15.5,15.6c7.6,0,11.8-4.9,11.8-4.9l-2.9-3.9
		C327.1,79.2,323.6,83,318.4,83z"/>
</g>
<g>
	<path class="st1" d="M49.5,41.5v6.9h-3.7V28.8h6.4c1.3,0,2.4,0.2,3.4,0.5c1,0.3,1.8,0.7,2.4,1.3c0.6,0.6,1.1,1.2,1.4,2
		c0.3,0.8,0.4,1.6,0.4,2.5c0,1-0.2,1.8-0.5,2.6c-0.3,0.8-0.8,1.5-1.4,2c-0.6,0.6-1.4,1-2.4,1.3c-1,0.3-2.1,0.5-3.3,0.5H49.5z
		 M49.5,38.7h2.7c0.7,0,1.3-0.1,1.8-0.3c0.5-0.2,0.9-0.4,1.2-0.7c0.3-0.3,0.6-0.7,0.7-1.1c0.2-0.4,0.2-0.9,0.2-1.5
		c0-0.5-0.1-1-0.2-1.4s-0.4-0.8-0.7-1.1c-0.3-0.3-0.7-0.5-1.2-0.7c-0.5-0.2-1.1-0.2-1.8-0.2h-2.7V38.7z"/>
	<path class="st1" d="M81.5,38.6c0,1.4-0.2,2.8-0.7,4c-0.5,1.2-1.2,2.3-2,3.2s-1.9,1.6-3.1,2.1c-1.2,0.5-2.6,0.8-4.1,0.8
		s-2.8-0.3-4.1-0.8c-1.2-0.5-2.3-1.2-3.2-2.1c-0.9-0.9-1.6-2-2-3.2s-0.7-2.6-0.7-4c0-1.4,0.2-2.8,0.7-4s1.2-2.3,2-3.2
		c0.9-0.9,1.9-1.6,3.2-2.1s2.6-0.8,4.1-0.8s2.8,0.3,4.1,0.8c1.2,0.5,2.3,1.2,3.1,2.1c0.9,0.9,1.5,2,2,3.2
		C81.3,35.9,81.5,37.2,81.5,38.6z M77.8,38.6c0-1.1-0.1-2-0.4-2.9c-0.3-0.9-0.7-1.6-1.2-2.2c-0.5-0.6-1.2-1.1-1.9-1.4
		c-0.8-0.3-1.6-0.5-2.6-0.5c-1,0-1.8,0.2-2.6,0.5c-0.8,0.3-1.4,0.8-2,1.4c-0.5,0.6-1,1.3-1.2,2.2c-0.3,0.9-0.4,1.8-0.4,2.9
		c0,1.1,0.1,2,0.4,2.9c0.3,0.9,0.7,1.6,1.2,2.2c0.5,0.6,1.2,1,2,1.4c0.8,0.3,1.6,0.5,2.6,0.5c1,0,1.8-0.2,2.6-0.5
		c0.8-0.3,1.4-0.8,1.9-1.4c0.5-0.6,0.9-1.3,1.2-2.2C77.6,40.7,77.8,39.7,77.8,38.6z"/>
	<path class="st1" d="M82.6,28.8h3.1c0.3,0,0.6,0.1,0.8,0.2c0.2,0.1,0.4,0.4,0.4,0.6l3.3,11.7c0.1,0.3,0.2,0.6,0.2,0.9
		c0.1,0.3,0.1,0.7,0.2,1.1c0.1-0.4,0.2-0.7,0.2-1.1c0.1-0.3,0.2-0.7,0.3-0.9L95,29.6c0.1-0.2,0.2-0.4,0.4-0.6
		c0.2-0.2,0.5-0.3,0.8-0.3h1.1c0.3,0,0.6,0.1,0.8,0.2c0.2,0.1,0.4,0.4,0.4,0.6l3.8,11.7c0.2,0.6,0.4,1.2,0.5,1.9
		c0.1-0.4,0.1-0.7,0.2-1c0.1-0.3,0.1-0.6,0.2-0.9l3.3-11.7c0.1-0.2,0.2-0.4,0.4-0.6c0.2-0.2,0.5-0.2,0.8-0.2h2.9l-6.1,19.6h-3.3
		L97,35c-0.1-0.2-0.1-0.4-0.2-0.6c-0.1-0.2-0.1-0.4-0.2-0.6c-0.1,0.2-0.1,0.4-0.2,0.6c-0.1,0.2-0.1,0.4-0.2,0.6L92,48.5h-3.3
		L82.6,28.8z"/>
	<path class="st1" d="M125.2,28.8v2.9h-8.7v5.4h6.9V40h-6.9v5.6h8.7v2.9h-12.4V28.8H125.2z"/>
	<path class="st1" d="M132.1,40.8v7.7h-3.7V28.8h6c1.3,0,2.5,0.1,3.4,0.4c1,0.3,1.7,0.7,2.4,1.2c0.6,0.5,1.1,1.1,1.3,1.8
		c0.3,0.7,0.4,1.5,0.4,2.3c0,0.7-0.1,1.3-0.3,1.9c-0.2,0.6-0.5,1.1-0.8,1.6c-0.4,0.5-0.8,0.9-1.4,1.3c-0.5,0.4-1.2,0.7-1.8,0.9
		c0.5,0.3,0.9,0.6,1.2,1.1l4.9,7.3h-3.3c-0.3,0-0.6-0.1-0.8-0.2c-0.2-0.1-0.4-0.3-0.6-0.5l-4.1-6.3c-0.2-0.2-0.3-0.4-0.5-0.5
		c-0.2-0.1-0.5-0.1-0.8-0.1H132.1z M132.1,38.2h2.3c0.7,0,1.3-0.1,1.8-0.3c0.5-0.2,0.9-0.4,1.3-0.7c0.3-0.3,0.6-0.7,0.7-1.1
		c0.2-0.4,0.2-0.9,0.2-1.4c0-1-0.3-1.8-1-2.3c-0.7-0.5-1.7-0.8-3-0.8h-2.3V38.2z"/>
	<path class="st1" d="M158.5,28.8v2.9h-8.7v5.4h6.9V40h-6.9v5.6h8.7v2.9h-12.4V28.8H158.5z"/>
	<path class="st1" d="M179.2,38.6c0,1.4-0.2,2.8-0.7,4c-0.5,1.2-1.2,2.2-2,3.1c-0.9,0.9-1.9,1.5-3.1,2c-1.2,0.5-2.6,0.7-4.1,0.7
		h-7.5V28.8h7.5c1.5,0,2.8,0.2,4.1,0.7c1.2,0.5,2.3,1.2,3.1,2c0.9,0.9,1.5,1.9,2,3.1C178.9,35.9,179.2,37.2,179.2,38.6z M175.4,38.6
		c0-1.1-0.1-2-0.4-2.9c-0.3-0.9-0.7-1.6-1.2-2.2c-0.5-0.6-1.2-1-1.9-1.4c-0.8-0.3-1.6-0.5-2.6-0.5h-3.8v13.8h3.8
		c1,0,1.8-0.2,2.6-0.5c0.8-0.3,1.4-0.8,1.9-1.4c0.5-0.6,0.9-1.3,1.2-2.2C175.3,40.7,175.4,39.7,175.4,38.6z"/>
	<path class="st1" d="M187.3,48.5V28.8h6.8c1.3,0,2.4,0.1,3.3,0.4c0.9,0.2,1.7,0.6,2.2,1c0.6,0.5,1,1,1.3,1.6
		c0.3,0.6,0.4,1.4,0.4,2.2c0,0.5-0.1,0.9-0.2,1.3s-0.3,0.8-0.6,1.2c-0.3,0.4-0.6,0.7-1.1,1c-0.4,0.3-1,0.6-1.6,0.8
		c2.7,0.6,4,2.1,4,4.4c0,0.8-0.2,1.6-0.5,2.3c-0.3,0.7-0.8,1.3-1.4,1.8c-0.6,0.5-1.4,0.9-2.2,1.2c-0.9,0.3-1.9,0.4-3,0.4H187.3z
		 M190.9,37.3h2.9c1.2,0,2.2-0.2,2.8-0.7c0.6-0.5,1-1.2,1-2.2c0-1-0.3-1.8-0.9-2.2c-0.6-0.4-1.5-0.7-2.7-0.7h-3.1V37.3z M190.9,39.8
		v5.8h3.7c0.7,0,1.2-0.1,1.7-0.2c0.5-0.2,0.8-0.4,1.1-0.7c0.3-0.3,0.5-0.6,0.6-1c0.1-0.4,0.2-0.7,0.2-1.2c0-0.4-0.1-0.8-0.2-1.1
		s-0.3-0.6-0.6-0.9c-0.3-0.2-0.7-0.4-1.1-0.5c-0.5-0.1-1-0.2-1.6-0.2H190.9z"/>
	<path class="st1" d="M213.7,40.8v7.6H210v-7.6l-7.2-12h3.2c0.3,0,0.6,0.1,0.8,0.2c0.2,0.2,0.3,0.3,0.5,0.6l3.6,6.6
		c0.2,0.4,0.4,0.8,0.5,1.1c0.2,0.3,0.3,0.7,0.4,1c0.1-0.3,0.3-0.7,0.4-1c0.2-0.3,0.3-0.7,0.5-1.1l3.6-6.6c0.1-0.2,0.2-0.4,0.4-0.6
		s0.5-0.3,0.8-0.3h3.2L213.7,40.8z"/>
</g>
<g>
	<path class="st0" d="M335.9,304.3c-24.3,0-44-19.7-44-44c0-24.3,19.7-44,44-44c24.3,0,44,19.7,44,44
		C379.9,284.6,360.1,304.3,335.9,304.3z M335.9,224.9c-19.5,0-35.5,15.9-35.5,35.5c0,19.6,15.9,35.5,35.5,35.5
		c19.6,0,35.5-15.9,35.5-35.5C371.3,240.8,355.4,224.9,335.9,224.9z"/>
	<g>
		<polygon class="st0" points="323.2,280.6 314.7,280.6 327.5,240 336.1,240 		"/>
		<polygon class="st0" points="344.2,280.6 335.7,280.6 348.5,240 357,240 		"/>
	</g>
</g>
<g>
	<path class="st0" d="M19,260.3h5v11.3h3.6l6.5-11.3h5.5l-7.8,13.2v0.1L40,288h-5.7l-6.8-12.1H24V288h-5L19,260.3L19,260.3z"/>
	<path class="st0" d="M39.9,260.3h5V278c0,3.7,2.4,5.8,6.1,5.8c3.7,0,6.2-2.1,6.2-5.9v-17.7h5V278c0,6.2-4.5,10.4-11.2,10.4
		c-6.7,0-11.2-4.2-11.2-10.4V260.3z"/>
	<path class="st0" d="M65,260.3H74c3,0,4.4,0.2,5.6,0.8c2.8,1.3,4.5,3.9,4.5,7.6c0,3.3-1.8,6.4-4.7,7.6v0.1c0,0,0.4,0.4,0.9,1.4
		L86,288h-5.6l-5.5-10.3h-4.8V288h-5L65,260.3L65,260.3z M74.6,273.3c2.7,0,4.4-1.6,4.4-4.4c0-2.7-1.1-4.3-5.1-4.3h-3.8v8.7
		L74.6,273.3L74.6,273.3z"/>
	<path class="st0" d="M86.8,260.3h8.9c3,0,4.4,0.2,5.6,0.8c2.8,1.3,4.5,3.9,4.5,7.6c0,3.3-1.8,6.4-4.7,7.6v0.1c0,0,0.4,0.4,0.9,1.4
		l5.7,10.3h-5.6l-5.5-10.3h-4.8V288h-5L86.8,260.3L86.8,260.3z M96.4,273.3c2.7,0,4.4-1.6,4.4-4.4c0-2.7-1.1-4.3-5.1-4.3h-3.8v8.7
		L96.4,273.3L96.4,273.3z"/>
	<path class="st0" d="M147.2,260.3c-1.3,0-2.3,1-2.4,2.3v13.7c0,1.6,0.3,4.3,0.3,4.3H145c0,0-1.3-2.7-2.3-4.3l-10.5-16h-5V288h2.7
		c1.3,0,2.3-1,2.4-2.3V272c0-1.6-0.3-4.3-0.3-4.3h0.1c0,0,1.3,2.7,2.3,4.3l10.5,16h5v-27.7H147.2z"/>
	<polygon class="st0" points="172.8,260.7 172.8,260.3 149.5,260.3 149.5,264.6 158.6,264.6 158.6,288 163.7,288 163.7,264.6 
		171.5,264.6 	"/>
	<polygon class="st0" points="113.6,276.2 121.7,276.2 123,272.1 123,271.9 113.6,271.9 113.6,264.6 123.8,264.6 125.2,260.3 
		108.6,260.3 108.6,288 125.8,288 125.8,283.7 113.6,283.7 	"/>
</g>
<g>
	<path class="st0" d="M179.4,260.8h5.4l5.4,13.7c0.6,1.6,1.4,4.1,1.4,4.1h0.1c0,0,0.7-2.4,1.4-4.1l5.4-13.7h5.4l2.2,27.7h-5L200,273
		c-0.1-1.8,0-4.3,0-4.3h-0.1c0,0-0.8,2.7-1.5,4.3l-4.5,10.7h-4.4L185,273c-0.7-1.6-1.5-4.3-1.5-4.3h-0.1c0,0,0.1,2.5,0,4.3
		l-1.2,15.5h-5L179.4,260.8z"/>
	<path class="st0" d="M250.8,260.8h5v27.7h-5V260.8z"/>
	<path class="st0" d="M208,260.8h5v17.8c0,3.7,2.4,5.8,6.1,5.8s6.2-2.1,6.2-5.9v-17.7h5v17.8c0,6.2-4.5,10.4-11.2,10.4
		c-6.7,0-11.2-4.2-11.2-10.4L208,260.8L208,260.8z"/>
	<path class="st0" d="M236.6,268.2c0-2,1.8-3.3,4.2-3.3c3.5,0,6.1,2.4,6.1,2.4l0.1-0.2l1.4-4.4c-1.1-0.9-3.7-2.4-7.6-2.4
		c-5.3,0-9.3,3.4-9.3,8c0,8.5,13.1,7.7,13.1,12.6c0,2.3-1.9,3.4-4,3.4c-3.3,0-6.3-1.9-8-3.4c-0.3,1.7-0.9,3.2-1.7,4.6
		c2.2,1.6,5.6,3.4,9.7,3.4c5.8,0,9.1-3.7,9.1-8.1C249.7,272,236.6,273.2,236.6,268.2z"/>
	<path class="st0" d="M271.6,284.3c-5.8,0-9.3-4.6-9.3-9.9c0-5.2,3.4-9.5,9.3-9.5c4.4,0,7.6,2.9,7.6,2.9l0.1-0.2l1.4-4.4
		c-1.4-1.1-4.6-3-9.3-3c-8.2,0-14.3,6.2-14.3,14.2c0,8.2,5.9,14.4,14.3,14.4c7.1,0,10.9-4.5,10.9-4.5l-2.7-3.6
		C279.6,280.8,276.4,284.3,271.6,284.3z"/>
</g>
<g>
	<path class="st0" d="M24,243.7v8h-4.2V229h7.4c1.5,0,2.8,0.2,3.9,0.5c1.1,0.4,2,0.9,2.7,1.5c0.7,0.6,1.3,1.4,1.6,2.3
		c0.3,0.9,0.5,1.9,0.5,2.9c0,1.1-0.2,2.1-0.5,3c-0.4,0.9-0.9,1.7-1.6,2.4c-0.7,0.7-1.6,1.2-2.7,1.5c-1.1,0.4-2.4,0.5-3.9,0.5H24z
		 M24,240.4h3.2c0.8,0,1.4-0.1,2-0.3c0.6-0.2,1.1-0.5,1.4-0.8c0.4-0.4,0.7-0.8,0.8-1.3c0.2-0.5,0.3-1.1,0.3-1.7
		c0-0.6-0.1-1.2-0.3-1.6c-0.2-0.5-0.5-0.9-0.8-1.3c-0.4-0.3-0.9-0.6-1.4-0.8c-0.6-0.2-1.2-0.3-2-0.3H24V240.4z"/>
	<path class="st0" d="M61,240.4c0,1.7-0.3,3.2-0.8,4.6c-0.6,1.4-1.3,2.6-2.3,3.7c-1,1-2.2,1.8-3.6,2.4c-1.4,0.6-3,0.9-4.7,0.9
		c-1.7,0-3.3-0.3-4.7-0.9c-1.4-0.6-2.6-1.4-3.6-2.4c-1-1-1.8-2.3-2.3-3.7c-0.6-1.4-0.8-3-0.8-4.6c0-1.7,0.3-3.2,0.8-4.6
		c0.6-1.4,1.3-2.6,2.3-3.7c1-1,2.2-1.8,3.6-2.4s3-0.9,4.7-0.9c1.7,0,3.3,0.3,4.7,0.9c1.4,0.6,2.6,1.4,3.6,2.4c1,1,1.8,2.3,2.3,3.7
		C60.7,237.2,61,238.7,61,240.4z M56.7,240.4c0-1.2-0.2-2.4-0.5-3.3c-0.3-1-0.8-1.8-1.4-2.5c-0.6-0.7-1.4-1.2-2.3-1.6
		c-0.9-0.4-1.9-0.5-3-0.5c-1.1,0-2.1,0.2-3,0.5c-0.9,0.4-1.6,0.9-2.3,1.6c-0.6,0.7-1.1,1.5-1.4,2.5c-0.3,1-0.5,2.1-0.5,3.3
		s0.2,2.4,0.5,3.3c0.3,1,0.8,1.8,1.4,2.5c0.6,0.7,1.4,1.2,2.3,1.6c0.9,0.4,1.9,0.5,3,0.5c1.1,0,2.1-0.2,3-0.5
		c0.9-0.4,1.6-0.9,2.3-1.6c0.6-0.7,1.1-1.5,1.4-2.5C56.5,242.7,56.7,241.6,56.7,240.4z"/>
	<path class="st0" d="M62.2,229h3.5c0.4,0,0.7,0.1,0.9,0.3c0.2,0.2,0.4,0.4,0.5,0.7l3.9,13.6c0.1,0.3,0.2,0.7,0.3,1.1
		c0.1,0.4,0.2,0.8,0.2,1.2c0.1-0.4,0.2-0.9,0.3-1.2c0.1-0.4,0.2-0.8,0.3-1.1l4.5-13.6c0.1-0.2,0.2-0.5,0.5-0.7
		c0.2-0.2,0.5-0.3,0.9-0.3h1.2c0.4,0,0.7,0.1,0.9,0.3c0.2,0.2,0.4,0.4,0.5,0.7l4.4,13.6c0.2,0.7,0.4,1.4,0.6,2.2
		c0.1-0.4,0.1-0.8,0.2-1.2s0.2-0.7,0.2-1.1L90,230c0.1-0.3,0.2-0.5,0.5-0.7c0.3-0.2,0.6-0.3,0.9-0.3h3.3l-7,22.7h-3.8l-5-15.5
		c-0.1-0.2-0.1-0.4-0.2-0.6c-0.1-0.2-0.1-0.5-0.2-0.7c-0.1,0.3-0.1,0.5-0.2,0.7c-0.1,0.2-0.1,0.4-0.2,0.6l-5,15.5h-3.8L62.2,229z"/>
	<path class="st0" d="M111.5,229v3.4h-10.1v6.3h7.9v3.2h-7.9v6.4h10.1v3.4H97.2V229H111.5z"/>
	<path class="st0" d="M119.5,242.9v8.9h-4.2V229h6.9c1.5,0,2.9,0.2,4,0.5c1.1,0.3,2,0.8,2.7,1.3c0.7,0.6,1.2,1.3,1.6,2.1
		c0.3,0.8,0.5,1.7,0.5,2.6c0,0.8-0.1,1.5-0.3,2.2c-0.2,0.7-0.5,1.3-1,1.9c-0.4,0.6-0.9,1-1.6,1.5c-0.6,0.4-1.3,0.8-2.1,1
		c0.5,0.3,1,0.7,1.4,1.3l5.7,8.4h-3.8c-0.4,0-0.7-0.1-0.9-0.2c-0.3-0.1-0.5-0.4-0.7-0.6l-4.8-7.3c-0.2-0.3-0.4-0.5-0.6-0.6
		c-0.2-0.1-0.5-0.2-0.9-0.2H119.5z M119.5,239.8h2.6c0.8,0,1.5-0.1,2.1-0.3c0.6-0.2,1.1-0.5,1.5-0.8c0.4-0.4,0.7-0.8,0.9-1.2
		c0.2-0.5,0.3-1,0.3-1.6c0-1.1-0.4-2-1.1-2.6c-0.8-0.6-1.9-0.9-3.5-0.9h-2.7V239.8z"/>
	<path class="st0" d="M150,229v3.4h-10.1v6.3h7.9v3.2h-7.9v6.4H150v3.4h-14.3V229H150z"/>
	<path class="st0" d="M173.7,240.4c0,1.7-0.3,3.2-0.8,4.6c-0.6,1.4-1.3,2.6-2.3,3.6c-1,1-2.2,1.8-3.6,2.3c-1.4,0.6-3,0.8-4.7,0.8
		h-8.7V229h8.7c1.7,0,3.3,0.3,4.7,0.8c1.4,0.6,2.6,1.3,3.6,2.3c1,1,1.8,2.2,2.3,3.6C173.5,237.2,173.7,238.7,173.7,240.4z
		 M169.4,240.4c0-1.2-0.2-2.4-0.5-3.3c-0.3-1-0.8-1.8-1.4-2.5c-0.6-0.7-1.4-1.2-2.2-1.6c-0.9-0.4-1.9-0.5-3-0.5h-4.4v16h4.4
		c1.1,0,2.1-0.2,3-0.5c0.9-0.4,1.6-0.9,2.2-1.6c0.6-0.7,1.1-1.5,1.4-2.5C169.3,242.7,169.4,241.6,169.4,240.4z"/>
	<path class="st0" d="M183.1,251.7V229h7.8c1.5,0,2.8,0.1,3.8,0.4c1.1,0.3,1.9,0.7,2.6,1.2c0.7,0.5,1.2,1.2,1.5,1.9
		c0.3,0.7,0.5,1.6,0.5,2.5c0,0.5-0.1,1-0.2,1.5s-0.4,0.9-0.7,1.4c-0.3,0.4-0.7,0.8-1.3,1.2c-0.5,0.3-1.1,0.6-1.8,0.9
		c3.1,0.7,4.7,2.4,4.7,5c0,1-0.2,1.9-0.5,2.7c-0.4,0.8-0.9,1.5-1.6,2.1c-0.7,0.6-1.6,1.1-2.6,1.4c-1,0.3-2.2,0.5-3.5,0.5H183.1z
		 M187.3,238.9h3.4c1.4,0,2.5-0.3,3.3-0.8c0.7-0.5,1.1-1.4,1.1-2.5c0-1.2-0.3-2-1-2.5c-0.7-0.5-1.7-0.8-3.1-0.8h-3.6V238.9z
		 M187.3,241.8v6.6h4.3c0.8,0,1.4-0.1,2-0.3c0.5-0.2,1-0.4,1.3-0.8c0.3-0.3,0.5-0.7,0.7-1.1c0.1-0.4,0.2-0.9,0.2-1.3
		c0-0.5-0.1-0.9-0.2-1.3c-0.2-0.4-0.4-0.7-0.7-1c-0.3-0.3-0.8-0.5-1.3-0.6c-0.5-0.1-1.2-0.2-1.9-0.2H187.3z"/>
	<path class="st0" d="M213.6,242.9v8.8h-4.2v-8.8l-8.3-13.9h3.7c0.4,0,0.7,0.1,0.9,0.3c0.2,0.2,0.4,0.4,0.5,0.7l4.2,7.6
		c0.2,0.4,0.5,0.9,0.6,1.3c0.2,0.4,0.3,0.8,0.5,1.2c0.1-0.4,0.3-0.8,0.5-1.2c0.2-0.4,0.4-0.8,0.6-1.3l4.1-7.6
		c0.1-0.2,0.3-0.4,0.5-0.6c0.2-0.2,0.5-0.3,0.9-0.3h3.7L213.6,242.9z"/>
</g>
</svg>
